# xmcd
#
# Track frame offsets:
#	150
#	14339
#	28759
#	42285
#	51267
#	63483
#	76848
#	90076
#	103184
#	116553
#	129201
#	142265
#
# Disc length: 2055 seconds
#
# Revision: 1
# Processed by: cddbd v1.5.2PL0 Copyright (c) Steve Scherf et al.
# Submitted via: EZCDAudioConverter 9.0.5.1
#
DISCID=9a08050c
DTITLE=OS SANTANNAS - FAMILIA SANTANNA - INSTRUMENTAL VOL.01 (OS GAITEIROS LÁ 
DTITLE=DE CASA [CD1-1-123804) CD POINT
DYEAR=2009
DGENRE=FORRÓ
TTITLE0=PICA-PAU [VANERÃO](BENITHO SANTANNA) (BY GILMAR SINISTRO)
TTITLE1=VANERINHA DO TIO AMÂNCIO [VANERA] (ONOFRE SANTANNA) (BY GILMAR SINISTR
TTITLE1=O)
TTITLE2=NOCTURNO DEL PLATA [CHAMARRITTA] (BENITHO SANTANNA) (BY GILMAR SINISTR
TTITLE2=O)
TTITLE3=ANGÚ DE CAROÇO [VANERÃO] (ONOFRE SANTANNA) (BY GILMAR SINISTRO)
TTITLE4=SEMPRE LINDA [VALSA] (ONOFRE SANTANNA) (BY GILMAR SINISTRO)
TTITLE5=DE MORMAÇO E SOLEDADE [ VANERÃO] (DINO SANTANNA) (BY GILMAR SINISTRO)
TTITLE6=14º DE LA PROVINCIA [CHAMARRITTA] (BENITHO SANTANNA) (BY GILMAR SINIST
TTITLE6=RO)
TTITLE7=MACANUDO [VANERÃO] (ONOFRE SANTANNA) (BY GILMAR SINISTRO)
TTITLE8=MÃE MARINA [CHAMAMÉ] (MARCELO SANTANNA) (BY GILMAR SINISTRO)
TTITLE9=MAMBO CAMPERO [VANERA] (MARCELO SANTANNA) (BY GILMAR SINISTRO)
TTITLE10=VANERÃO DO DINO [VANERÃO] (DINO SANTANNA) (BY GILMAR SINISTRO)
TTITLE11=CABEÇA DE BOI [VANERÃO] (MARCELO SANTANNA) (BY GILMAR SINISTRO)
EXTD=
EXTT0=
EXTT1=
EXTT2=
EXTT3=
EXTT4=
EXTT5=
EXTT6=
EXTT7=
EXTT8=
EXTT9=
EXTT10=
EXTT11=
PLAYORDER=
